<svg width="29" height="35" viewBox="0 0 29 35" fill="none" xmlns="http://www.w3.org/2000/svg">
<path d="M24.2865 18.7084C24.2468 14.3573 27.9029 12.2405 28.0701 12.142C25.9995 9.16794 22.7901 8.76159 21.6623 8.72919C18.9668 8.44974 16.3521 10.3181 14.979 10.3181C13.5785 10.3181 11.464 8.75619 9.18505 8.80209C6.25246 8.84664 3.50898 10.5193 2.00431 13.1167C-1.10095 18.4127 1.21498 26.1955 4.19005 30.4763C5.67828 32.5729 7.41728 34.9138 9.69346 34.8314C11.9203 34.741 12.7521 33.4328 15.4394 33.4328C18.1021 33.4328 18.8832 34.8314 21.2046 34.7788C23.5945 34.741 25.0992 32.6728 26.5353 30.5573C28.2551 28.1543 28.9458 25.7878 28.9732 25.6663C28.917 25.6474 24.3318 23.9234 24.2865 18.7084Z" fill="white"/>
<path d="M19.9014 5.91309C21.0991 4.43754 21.9186 2.43009 21.6911 0.392944C19.9576 0.468544 17.7896 1.57419 16.5412 3.01735C15.4367 4.28905 14.45 6.37345 14.7049 8.33365C16.6522 8.47675 18.6516 7.3657 19.9014 5.91309Z" fill="white"/>
</svg>
