<svg width="593" height="693" viewBox="0 0 593 693" fill="none" xmlns="http://www.w3.org/2000/svg">
<path d="M504.635 41.271C516.032 41.271 525.271 32.0322 525.271 20.6355C525.271 9.23883 516.032 0 504.635 0C493.239 0 484 9.23883 484 20.6355C484 32.0322 493.239 41.271 504.635 41.271Z" fill="#00E9DE"/>
<path d="M348.958 371.916C435.091 371.916 504.916 302.091 504.916 215.958C504.916 129.825 435.091 60 348.958 60C262.825 60 193 129.825 193 215.958C193 302.091 262.825 371.916 348.958 371.916Z" fill="#FD82C1"/>
<g clip-path="url(#clip0_102_17)">
<path d="M358.5 547C467.024 547 555 458.8 555 350C555 241.2 467.024 153 358.5 153C249.976 153 162 241.2 162 350C162 458.8 249.976 547 358.5 547Z" fill="#9DF3AC"/>
</g>
<path d="M210.084 405.168C283.584 405.168 343.168 345.584 343.168 272.084C343.168 198.584 283.584 139 210.084 139C136.584 139 77 198.584 77 272.084C77 345.584 136.584 405.168 210.084 405.168Z" fill="#00E9DE"/>
<path d="M568.182 692.364C581.538 692.364 592.364 681.538 592.364 668.182C592.364 654.827 581.538 644 568.182 644C554.827 644 544 654.827 544 668.182C544 681.538 554.827 692.364 568.182 692.364Z" fill="#FD82C1"/>
<path d="M20.6355 392.271C32.0322 392.271 41.271 383.032 41.271 371.635C41.271 360.239 32.0322 351 20.6355 351C9.23883 351 0 360.239 0 371.635C0 383.032 9.23883 392.271 20.6355 392.271Z" fill="#9DF3AC"/>
<defs>
<clipPath id="clip0_102_17">
<rect width="393" height="394" fill="white" transform="translate(162 153)"/>
</clipPath>
</defs>
</svg>
